# xmcd CD database file
#
# Track frame offsets:
#	150
#	1896
#	22282
#	43330
#	65747
#	82920
#	94526
#	112861
#	132767
#	149313
#	170744
#
# Disc length: 2474 seconds
#
# Revision: 0
# Processed by: cddbd v1.5.2PL0 Copyright (c) Steve Scherf et al.
# Submitted via: CDex 1.51
#
DISCID=9009a80b
DTITLE=MERCURYHAT - Blinding Blues, Stinging Bees
DYEAR=2008
DGENRE=Country
TTITLE0=Calm
TTITLE1=Hovercraft
TTITLE2=Hurricane Tree
TTITLE3=Barrington
TTITLE4=Lemon Tea
TTITLE5=Life In A Day
TTITLE6=Stars
TTITLE7=No One Was Counting
TTITLE8=Good Insomnia
TTITLE9=Memo To Self
TTITLE10=Ripping Details
EXTD=YEAR: 2008
EXTT0=
EXTT1=
EXTT2=
EXTT3=
EXTT4=
EXTT5=
EXTT6=
EXTT7=
EXTT8=
EXTT9=
EXTT10=
PLAYORDER=
